HIERARCHY
ROOT Bip01_Pelvis
{
	OFFSET 0.000000 1.328589 0.000000
	CHANNELS 6 Xposition Yposition Zposition Zrotation Yrotation Xrotation 
	JOINT BN_Tail_01
	{
		OFFSET 0.002829 -0.097032 -0.128569
		CHANNELS 3 Zrotation Yrotation Xrotation
		End Site #name: BN_Tail_R_01
		{
			OFFSET -0.041997 -0.163561 -0.155552
		}
		End Site #name: BN_Tail_L_01
		{
			OFFSET 0.048754 -0.165327 -0.151665
		}
	}
	JOINT Bip01_Spine
	{
		OFFSET -0.002379 -0.010005 0.108133
		CHANNELS 3 Zrotation Yrotation Xrotation
		JOINT BN_Forearm_L_01
		{
			OFFSET 0.162717 -0.064196 0.015185
			CHANNELS 3 Zrotation Yrotation Xrotation
			JOINT BN_Forearm_L_02
			{
				OFFSET 0.247226 0.035014 -0.119087
				CHANNELS 3 Zrotation Yrotation Xrotation
				JOINT BN_Forearm_L_03
				{
					OFFSET 0.408857 0.044197 0.050621
					CHANNELS 3 Zrotation Yrotation Xrotation
					End Site #name: BN_Forearm_L_04
					{
						OFFSET 0.280290 -0.019311 -0.155437
					}
				}
			}
		}
		JOINT BN_Forearm_R_01
		{
			OFFSET -0.159348 -0.066581 0.031681
			CHANNELS 3 Zrotation Yrotation Xrotation
			JOINT BN_Forearm_R_02
			{
				OFFSET -0.241748 0.035016 -0.129845
				CHANNELS 3 Zrotation Yrotation Xrotation
				JOINT BN_Forearm_R_03
				{
					OFFSET -0.410688 0.044199 0.032589
					CHANNELS 3 Zrotation Yrotation Xrotation
					End Site #name: BN_Forearm_R_04
					{
						OFFSET -0.273182 -0.019309 -0.167614
					}
				}
			}
		}
		JOINT Bone02
		{
			OFFSET 0.003666 0.072313 0.082027
			CHANNELS 3 Zrotation Yrotation Xrotation
			End Site #name: Bone03
			{
				OFFSET 0.003844 0.119844 -0.174713
			}
		}
		JOINT Bip01_R_Thigh
		{
			OFFSET -0.049216 -0.004125 -0.109704
			CHANNELS 3 Zrotation Yrotation Xrotation
			JOINT Bip01_R_Calf
			{
				OFFSET -0.032083 -0.318469 0.052172
				CHANNELS 3 Zrotation Yrotation Xrotation
				JOINT Bip01_R_HorseLink
				{
					OFFSET 0.025800 -0.400226 -0.066351
					CHANNELS 3 Zrotation Yrotation Xrotation
					JOINT Bip01_R_Foot
					{
						OFFSET -0.032189 -0.553674 0.043643
						CHANNELS 3 Zrotation Yrotation Xrotation
						End Site #name: Bip01_R_Toe2
						{
							OFFSET 0.010358 -0.031171 0.019449
						}
						End Site #name: Bip01_R_Toe1
						{
							OFFSET -0.019715 -0.042089 0.040053
						}
						End Site #name: Bip01_R_Toe0
						{
							OFFSET -0.053089 -0.031922 0.016609
						}
					}
				}
			}
		}
		JOINT Bip01_L_Thigh
		{
			OFFSET 0.088065 -0.001276 -0.103967
			CHANNELS 3 Zrotation Yrotation Xrotation
			JOINT Bip01_L_Calf
			{
				OFFSET 0.029759 -0.318468 0.053536
				CHANNELS 3 Zrotation Yrotation Xrotation
				JOINT Bip01_L_HorseLink
				{
					OFFSET -0.022854 -0.400227 -0.067417
					CHANNELS 3 Zrotation Yrotation Xrotation
					JOINT Bip01_L_Foot
					{
						OFFSET 0.030243 -0.553674 0.045022
						CHANNELS 3 Zrotation Yrotation Xrotation
						JOINT Bip01_L_Toe2
						{
							OFFSET -0.011203 -0.031171 0.018975
							CHANNELS 3 Zrotation Yrotation Xrotation
							End Site #name: Bip01_L_Toe21
							{
								OFFSET -0.058370 -0.013373 0.073488
							}
						}
						JOINT Bip01_L_Toe1
						{
							OFFSET 0.017935 -0.042089 0.040882
							CHANNELS 3 Zrotation Yrotation Xrotation
							End Site #name: Bip01_L_Toe11
							{
								OFFSET -0.002748 -0.001969 0.124903
							}
						}
						JOINT Bip01_L_Toe0
						{
							OFFSET 0.052307 -0.031922 0.018928
							CHANNELS 3 Zrotation Yrotation Xrotation
							End Site #name: Bip01_L_Toe01
							{
								OFFSET 0.050388 -0.011389 0.089360
							}
						}
					}
				}
			}
		}
		JOINT Bip01_Spine1
		{
			OFFSET 0.005545 0.000724 0.108375
			CHANNELS 3 Zrotation Yrotation Xrotation
			JOINT Bip01_Neck
			{
				OFFSET -0.001909 -0.096171 0.086759
				CHANNELS 3 Zrotation Yrotation Xrotation
				JOINT Bip01_Neck1
				{
					OFFSET -0.002353 0.134438 0.106958
					CHANNELS 3 Zrotation Yrotation Xrotation
					JOINT Bip01_Neck2
					{
						OFFSET -0.000566 0.165260 0.025753
						CHANNELS 3 Zrotation Yrotation Xrotation
						JOINT Bip01_Neck3
						{
							OFFSET 0.000683 0.171956 -0.031041
							CHANNELS 3 Zrotation Yrotation Xrotation
							JOINT Bip01_Neck4
							{
								OFFSET 0.000103 0.187044 -0.004648
								CHANNELS 3 Zrotation Yrotation Xrotation
								JOINT Bip01_Head
								{
									OFFSET -0.001187 0.171665 0.053953
									CHANNELS 3 Zrotation Yrotation Xrotation
									End Site #name: BN_Mouth_01
									{
										OFFSET -0.002942 0.004036 0.133719
									}
								}
							}
						}
					}
				}
			}
		}
	}
}
MOTION
Frames: 7
Frame Time: 0.041667
0.068639 1.258360 -0.021138 -10.633408 -7.902412 15.814994 10.171373 8.398456 -7.685829 8.290013 7.836898 -2.350127 -9.384015 80.104548 -98.351899 -167.767115 -28.854709 -149.552493 -157.768574 -4.046470 -111.365416 -5.791721 -76.714314 -101.609789 164.119447 20.650783 137.236076 -170.167105 1.154182 131.296483 129.624664 -11.416277 -40.809638 13.664253 -10.454081 -13.430934 -19.222482 18.832597 91.780072 5.086207 22.996340 -161.663368 -5.948089 11.955147 127.228214 4.616786 -16.928463 -19.944416 -8.698248 3.545077 23.762947 7.829718 1.894794 -22.367637 1.244365 6.274550 5.680352 30.322335 8.238030 -19.649782 1.273511 8.478507 0.160312 -23.021286 8.139709 -16.314924 -53.063626 58.419438 -22.764154 -132.645563 49.570342 117.689678 1.590813 10.492476 113.822832 -6.646293 4.935907 52.983821 4.827397 2.707603 -25.968051 10.009320 8.963515 -59.549408 -22.780246 -6.984891 -176.336779 
0.068768 1.258617 -0.021380 -10.635737 -7.894386 15.858148 10.175121 8.397331 -7.603072 8.290589 7.836811 -2.361065 -9.220747 80.031636 -98.214491 -167.766282 -28.862229 -149.553031 -157.776954 -4.064427 -111.371443 -5.748649 -76.716549 -101.691895 164.119452 20.650758 137.235880 -170.167109 1.154214 131.296356 129.616837 -11.380418 -40.754064 13.672780 -10.446020 -13.487283 -19.216149 18.843946 91.839704 5.092831 22.996590 -161.631408 -5.946666 11.953194 127.192551 4.651245 -16.917535 -20.063464 -8.698989 3.545426 23.764944 7.777477 1.876967 -22.226650 1.269565 6.277112 5.613830 30.322335 8.238030 -19.649782 1.273512 8.478507 0.160312 -23.021286 8.139709 -16.314924 -53.054079 58.431649 -22.748122 -132.651773 49.567873 117.681314 1.583704 10.480848 113.786308 -6.643712 4.927899 53.027252 4.808279 2.697693 -25.897264 9.984500 8.940047 -59.504921 -22.779361 -7.063233 -176.466769 
0.068896 1.258885 -0.021625 -10.638093 -7.886246 15.901903 10.178791 8.396223 -7.522026 8.291183 7.836747 -2.372422 -9.049200 79.958275 -98.073288 -167.765750 -28.870702 -149.553398 -157.785292 -4.082404 -111.377469 -5.703080 -76.719518 -101.781493 164.119440 20.650780 137.236074 -170.167106 1.154196 131.296430 129.615210 -11.316862 -40.728317 13.681916 -10.437085 -13.546555 -19.209597 18.855671 91.901361 5.099664 22.996847 -161.598384 -5.945145 11.951233 127.156909 4.685335 -16.907182 -20.183696 -8.698996 3.545424 23.764941 7.723817 1.858811 -22.081965 1.295121 6.279716 5.545801 30.322335 8.238030 -19.649782 1.273508 8.478507 0.160312 -23.021286 8.139709 -16.314924 -53.044794 58.443715 -22.732357 -132.658117 49.565404 117.671848 1.576698 10.469392 113.749383 -6.640830 4.919732 53.063270 4.789845 2.688161 -25.830605 9.960414 8.917322 -59.465329 -22.782160 -7.136454 -176.581276 
0.069023 1.259153 -0.021870 -10.640437 -7.878121 15.945569 10.182341 8.395159 -7.443794 8.291794 7.836660 -2.384037 -8.872329 79.885454 -97.931080 -167.765159 -28.879171 -149.553886 -157.793622 -4.100397 -111.383469 -5.655500 -76.722210 -101.878331 164.119457 20.650788 137.236079 -170.167109 1.154214 131.296356 129.610017 -11.265495 -40.684260 13.690471 -10.427779 -13.607815 -19.202822 18.867773 91.965045 5.106739 22.997106 -161.564291 -5.943598 11.949192 127.119275 4.718562 -16.896706 -20.301825 -8.698221 3.545059 23.762854 7.669573 1.840604 -21.935786 1.320667 6.282365 5.477484 30.322325 8.238031 -19.649782 1.273511 8.478507 0.160312 -23.021286 8.139709 -16.314924 -53.035951 58.455367 -22.717126 -132.664645 49.562899 117.660946 1.569932 10.458353 113.712556 -6.637677 4.911569 53.090445 4.772400 2.679149 -25.769543 9.937691 8.895829 -59.431917 -22.789079 -7.202934 -176.677174 
0.069145 1.259424 -0.022110 -10.642710 -7.870220 15.988017 10.185682 8.394138 -7.369888 8.292403 7.836603 -2.395693 -8.700795 79.814292 -97.797681 -167.764277 -28.886691 -149.554341 -157.802001 -4.118363 -111.389470 -5.605563 -76.726538 -101.980190 164.119427 20.650774 137.236070 -170.167108 1.154223 131.296326 129.605105 -11.213623 -40.641171 13.699496 -10.418797 -13.670181 -19.195939 18.880056 92.029743 5.113805 22.997362 -161.530199 -5.942021 11.947157 127.081647 4.751519 -16.886585 -20.415663 -8.696738 3.544361 23.758861 7.615847 1.822734 -21.791165 1.345710 6.284870 5.410272 30.322335 8.238030 -19.649782 1.273511 8.478507 0.160312 -23.021286 8.139709 -16.314924 -53.027737 58.466366 -22.702759 -132.671196 49.560451 117.649013 1.563573 10.447986 113.676731 -6.634374 4.903624 53.108235 4.756425 2.670946 -25.715415 9.916944 8.876174 -59.405439 -22.800127 -7.261105 -176.752206 
0.069265 1.259697 -0.022352 -10.644968 -7.862351 16.030286 10.188912 8.393146 -7.298395 8.293032 7.836511 -2.407666 -8.527914 79.743034 -97.667412 -167.763654 -28.895159 -149.554842 -157.810869 -4.137140 -111.395751 -5.553729 -76.730643 -102.089259 164.119427 20.650774 137.236070 -170.167097 1.154163 131.296570 129.600007 -11.160676 -40.597168 13.709599 -10.409077 -13.733431 -19.188892 18.892532 92.095466 5.121303 22.997631 -161.493979 -5.940379 11.945073 127.044033 4.784244 -16.876067 -20.529473 -8.694609 3.543364 23.753147 7.561530 1.804799 -21.644949 1.370749 6.287421 5.342675 30.322325 8.238031 -19.649782 1.273511 8.478507 0.160312 -23.021286 8.139709 -16.314924 -53.019831 58.477131 -22.688750 -132.678091 49.557968 117.635436 1.557490 10.438120 113.641002 -6.630891 4.895752 53.116258 4.741606 2.663347 -25.667363 9.897731 8.857933 -59.385906 -22.815954 -7.312043 -176.807285 
0.069383 1.259972 -0.022594 -10.647191 -7.854578 16.072030 10.192029 8.392198 -7.229616 8.293674 7.836444 -2.419939 -8.349157 79.672030 -97.535397 -167.762987 -28.903626 -149.555358 -157.819218 -4.155132 -111.401724 -5.499750 -76.735168 -102.204932 164.119441 20.650781 137.236074 -170.167119 1.154225 131.296300 129.593090 -11.115120 -40.543127 13.718478 -10.399217 -13.799748 -19.181630 18.905380 92.163215 5.128809 22.997895 -161.457757 -5.938707 11.942931 127.004427 4.816047 -16.866004 -20.640165 -8.691851 3.542062 23.745703 7.506807 1.786895 -21.497802 1.395686 6.290015 5.275165 30.322335 8.238030 -19.649782 1.273511 8.478507 0.160312 -23.021286 8.139709 -16.314924 -53.012310 58.487571 -22.675184 -132.685319 49.555424 117.620121 1.551767 10.428882 113.605769 -6.627259 4.888055 53.113896 4.728210 2.656493 -25.626155 9.880466 8.841474 -59.374031 -22.836914 -7.354786 -176.840413 
